                       Absolon (2003)


:INFO:


Format         : AVI
Format/Info    : Audio Video Interleave
File size      : 700 MiB
Duration       : 1h 32mn
Genres         : Sci-Fi | Action | Thriller 
Official Sites : Hannibal Pictures | SCI FI Pictures | Add/edit official sites  »
Country        : Canada | UK
Language       : English
Release Date   : 29 September 2005 (Portugal)
Subtitle       : »» Ro ««
IMDb           : http://www.imdb.com/title/tt0300902/

:Cast:

Director       : David DeBartolomé
Writer         : Brad Mirman
Stars          : Christopher Lambert, Kelly Brook and Lou Diamond Phillips 


:Sinopsis:


Într-un viitor sumbru si violent, umanitatea este o specie pe cale de disparitie. Supravietuirea noastrã se aflã în mâinile unei corporatii nemiloase, care controleazã ce a mai rãmas din populatia pãmântului.
În cele mai negre ceasuri ale omenirii singura sperantã se aflã în mâinile unui singur om, Norman Scott (Christopher Lambert), dar nici el nu trãieste o vesnicie. 

In the near future, a virus has infected everyone on the planet, and Absolon is a drug that everyone must take to stay alive. One corporation controls the drug. Murchison is the leader of this firm. A scientist who was researching the virus is found murdered, and Norman Scott is the policeman who investigates the crime. Soon Norman realizes that he's in over his head, as hitmen are gunning for him. 


:Video:

ID                                       : 0
Format                                   : MPEG-4 Visual
Codec ID                                 : DIV3
Codec ID/Hint                            : DivX 3 Low
Duration                                 : 1h 32mn
Bit rate                                 : 897 Kbps
Width                                    : 640 pixels
Height                                   : 352 pixels
Display aspect ratio                     : 16:9
Frame rate                               : 25.000 fps
Color space                              : YUV
Chroma subsampling                       : 4:2:0
Bit depth                                : 8 bits
Compression mode                         : Lossy
Bits/(Pixel*Frame)                       : 0.159
Stream size                              : 592 MiB (85%)

:Audio:

ID                                       : 1
Format                                   : MPEG Audio
Format version                           : Version 1
Format profile                           : Layer 3
Codec ID                                 : 55
Codec ID/Hint                            : MP3
Duration                                 : 1h 32mn
Bit rate mode                            : Variable
Bit rate                                 : 151 Kbps
Minimum bit rate                         : 128 Kbps
Channel(s)                               : 2 channels
Sampling rate                            : 48.0 KHz
Compression mode                         : Lossy
Stream size                              : 99.5 MiB (14%)
Alignment                                : Aligned on interleaves
Interleave, duration                     : 24 ms (0.60 video frame)
Interleave, preload duration             : 432 ms
Writing library                          : LAME3.92 
Encoding settings                        : -m s -V 4 -q 2 -lowpass 17.5 --vbr-old -b 128

